<svg width="21" height="22" viewBox="0 0 21 22" fill="none" xmlns="http://www.w3.org/2000/svg">
<path fill-rule="evenodd" clip-rule="evenodd" d="M3.33 1.76001C2.65773 1.76001 2.06 2.3103 2.06 3.13V5.45001C2.06 5.61289 2.11976 5.88228 2.25804 6.19049C2.39351 6.49245 2.57376 6.76307 2.75033 6.93964L2.76362 6.95327L6.60362 10.9933C6.61622 11.0066 6.62834 11.0203 6.63995 11.0345C6.90269 11.3549 7.1413 11.7775 7.31526 12.2131C7.48798 12.6456 7.62 13.1484 7.62 13.63V18.98C7.62 19.9693 8.75499 20.5824 9.6001 20.0655L11.0033 19.1598C11.3513 18.9352 11.8155 19.0352 12.0401 19.3833C12.2648 19.7313 12.1647 20.1955 11.8167 20.4201L10.4067 21.3302L10.3944 21.3379C8.62011 22.435 6.12 21.2285 6.12 18.98V13.63C6.12 13.4016 6.05201 13.0944 5.92223 12.7694C5.79823 12.4589 5.63899 12.1851 5.49569 12.0049L1.68247 7.99307C1.35228 7.66061 1.0801 7.22943 0.889459 6.80449C0.700235 6.38272 0.559998 5.89713 0.559998 5.45001V3.13C0.559998 1.52971 1.78226 0.26001 3.33 0.26001H16.67C18.1942 0.26001 19.44 1.50582 19.44 3.03003V5.25C19.44 5.79751 19.2721 6.36157 19.0548 6.83769C18.8365 7.31586 18.5372 7.77344 18.2103 8.10034C17.9174 8.39323 17.4426 8.39323 17.1497 8.10034C16.8568 7.80744 16.8568 7.33257 17.1497 7.03968C17.3228 6.86658 17.5285 6.56916 17.6902 6.21482C17.8529 5.85843 17.94 5.51249 17.94 5.25V3.03003C17.94 2.33423 17.3658 1.76001 16.67 1.76001H3.33Z" fill="black"/>
<path fill-rule="evenodd" clip-rule="evenodd" d="M14.88 9.75C12.6742 9.75 10.88 11.5442 10.88 13.75C10.88 14.5003 11.091 15.2135 11.4575 15.8049L11.4636 15.8148L11.4635 15.8148C12.1539 16.9683 13.4249 17.75 14.88 17.75C16.3376 17.75 17.6064 16.9762 18.2952 15.8169L18.3 15.8089L18.3 15.8089C18.6703 15.2031 18.88 14.4978 18.88 13.75C18.88 11.5442 17.0858 9.75 14.88 9.75ZM9.38 13.75C9.38 10.7158 11.8458 8.25 14.88 8.25C17.9142 8.25 20.38 10.7158 20.38 13.75C20.38 14.7805 20.0907 15.7538 19.5824 16.5871C18.6307 18.1856 16.8807 19.25 14.88 19.25C12.8772 19.25 11.1297 18.174 10.1794 16.5901C9.66787 15.7626 9.38 14.7777 9.38 13.75Z" fill="black"/>
<path fill-rule="evenodd" clip-rule="evenodd" d="M13.1097 11.9496C13.4026 11.6568 13.8774 11.6568 14.1703 11.9497L16.6803 14.4597C16.9732 14.7526 16.9732 15.2274 16.6803 15.5203C16.3874 15.8132 15.9126 15.8132 15.6197 15.5203L13.1097 13.0103C12.8168 12.7174 12.8168 12.2425 13.1097 11.9496Z" fill="black"/>
<path fill-rule="evenodd" clip-rule="evenodd" d="M16.6603 11.9797C16.9532 12.2726 16.9532 12.7474 16.6603 13.0403L14.1503 15.5503C13.8574 15.8432 13.3826 15.8432 13.0897 15.5504C12.7968 15.2575 12.7968 14.7826 13.0897 14.4897L15.5997 11.9797C15.8926 11.6868 16.3674 11.6868 16.6603 11.9797Z" fill="black"/>
<path fill-rule="evenodd" clip-rule="evenodd" d="M3.33 1.75C2.65773 1.75 2.06 2.30029 2.06 3.12V5.45001C2.06 5.60419 2.12005 5.87213 2.2613 6.18567C2.3991 6.49153 2.58111 6.76699 2.75555 6.94492L2.76368 6.95321L2.76362 6.95327L6.60362 10.9933C6.61831 11.0088 6.63233 11.0248 6.64565 11.0415C6.89874 11.3578 7.13572 11.7765 7.31072 12.2111C7.48403 12.6416 7.62 13.1456 7.62 13.63V18.98C7.62 19.9693 8.75499 20.5824 9.6001 20.0655L11.0033 19.1598C11.012 19.1542 11.0208 19.1488 11.0297 19.1435C11.1215 19.0895 11.2651 18.9431 11.3902 18.7014C11.4988 18.4916 11.5562 18.2817 11.5678 18.1267C11.0027 17.7096 10.5335 17.1826 10.178 16.5877C9.66949 15.7543 9.38 14.7808 9.38 13.75C9.38 10.7158 11.8458 8.25 14.88 8.25C15.1576 8.25 15.4328 8.27061 15.7019 8.3127L17.1616 7.02713C17.3344 6.84522 17.5332 6.55101 17.6899 6.20684C17.8529 5.84854 17.94 5.50245 17.94 5.23999V3.02002C17.94 2.32422 17.3658 1.75 16.67 1.75H3.33ZM0.559998 3.12C0.559998 1.5197 1.78226 0.25 3.33 0.25H16.67C18.1942 0.25 19.44 1.49582 19.44 3.02002V5.23999C19.44 5.78753 19.2721 6.35145 19.0551 6.82816C18.837 7.30752 18.5389 7.76523 18.2156 8.09506C18.2027 8.10814 18.1894 8.12075 18.1757 8.13285L16.4157 9.68284C16.2321 9.84456 15.9811 9.90653 15.7433 9.84888C15.4753 9.78391 15.1849 9.75 14.88 9.75C12.6742 9.75 10.88 11.5442 10.88 13.75C10.88 14.4978 11.0897 15.2031 11.46 15.8089L11.4641 15.8156L11.464 15.8157C11.7753 16.3372 12.2009 16.7773 12.7119 17.0905C12.9344 17.2269 13.07 17.4691 13.07 17.73V18.07C13.07 18.522 12.9273 18.9952 12.7223 19.3911C12.5224 19.7771 12.216 20.1805 11.8054 20.4274L10.4067 21.3302L10.3944 21.3379C8.62011 22.435 6.12 21.2285 6.12 18.98V13.63C6.12 13.4044 6.05097 13.0985 5.91928 12.7714C5.79457 12.4617 5.63489 12.1856 5.49241 12.0015L1.68009 7.99058C1.35645 7.65908 1.08503 7.22653 0.893691 6.80181C0.704948 6.38287 0.559998 5.89583 0.559998 5.45001V3.12Z" fill="black"/>
</svg>
